PathFileType	4	(X/Y/Z)	 s03c0302.trc
DataRate	CameraRate	NumFrames	NumMarkers	Units	OrigDataRate	OrigDataStartFrame	OrigNumFrames
200	200	4	52	mm	200	251	2000
Frame#	Time	racr			lacr			c7			jug			rlel			rdr			llel			ldr			s2			lic			ric			lasi			rasi			rpsi			lpsi			rgt			lgt			rth1			rth2			rth3			rth4			rlfc			rmfc			rsh1			rsh2			rsh3			rsh4			rlmal			rmmal			rcal			rtoe			rmt5			rmt1			lth1			lth2			lth4			lth3			llfc			lmfc			lsh1			lsh2			lsh3			lsh4			llmal			lmmal			lcal			ltoe			lmt1			lmt5			SBIKE			LBIKE			RBIKE			
		X1	Y1	Z1	X2	Y2	Z2	X3	Y3	Z3	X4	Y4	Z4	X5	Y5	Z5	X6	Y6	Z6	X7	Y7	Z7	X8	Y8	Z8	X9	Y9	Z9	X10	Y10	Z10	X11	Y11	Z11	X12	Y12	Z12	X13	Y13	Z13	X14	Y14	Z14	X15	Y15	Z15	X16	Y16	Z16	X17	Y17	Z17	X18	Y18	Z18	X19	Y19	Z19	X20	Y20	Z20	X21	Y21	Z21	X22	Y22	Z22	X23	Y23	Z23	X24	Y24	Z24	X25	Y25	Z25	X26	Y26	Z26	X27	Y27	Z27	X28	Y28	Z28	X29	Y29	Z29	X30	Y30	Z30	X31	Y31	Z31	X32	Y32	Z32	X33	Y33	Z33	X34	Y34	Z34	X35	Y35	Z35	X36	Y36	Z36	X37	Y37	Z37	X38	Y38	Z38	X39	Y39	Z39	X40	Y40	Z40	X41	Y41	Z41	X42	Y42	Z42	X43	Y43	Z43	X44	Y44	Z44	X45	Y45	Z45	X46	Y46	Z46	X47	Y47	Z47	X48	Y48	Z48	X49	Y49	Z49	X50	Y50	Z50	X51	Y51	Z51	X52	Y52	Z52	
251	1.2550	502.516434	1410.390046	-69.336693	497.439016	1423.359948	-399.879397	429.718801	1506.616792	-233.413414	468.527620	1341.467895	-229.842437	539.013685	1144.780995	23.572286	749.722826	947.000612	-25.132534	553.718168	1157.904346	-469.645777	759.869495	938.966630	-416.539574	-77.619461	1208.789557	-241.599439	115.411525	1210.984507	-420.754547	95.518541	1236.851446	-52.033238	125.338506	1133.202887	-379.821552	107.456049	1171.882922	-93.882056	-47.095521	1258.249084	-198.124964	-38.633168	1253.740927	-280.578147	31.676823	1158.087689	-33.255427	38.157436	1100.290170	-435.400087	157.123350	1072.668006	-16.889348	246.079353	1071.572362	-15.940244	321.715022	1029.635105	-17.127775	255.808289	1104.445898	-31.192787	439.004172	967.203803	-37.336195	445.914688	952.088265	-164.047061	363.096050	820.756352	-20.017253	336.155318	737.984602	-38.433047	270.266413	678.721169	-41.976980	361.401429	726.182380	-65.342718	194.114045	570.018676	-66.282149	219.187516	582.868081	-155.483605	123.450657	526.794022	-108.622447	432.383450	509.450795	-110.385703	313.332438	497.242346	-40.234891	338.700583	512.124666	-155.096866	98.408878	949.253527	-450.502751	153.900261	882.724303	-454.038612	187.607321	898.295502	-449.798676	170.550785	795.864574	-439.911244	241.802395	686.413214	-419.974019	242.092593	677.588327	-298.001585	160.333878	533.556409	-445.579845	149.836760	450.763895	-427.186957	95.390721	377.825705	-421.940284	177.897726	442.814605	-401.749683	39.387557	262.159436	-401.134163	72.095990	272.435238	-309.724689	-28.751341	215.003580	-351.520594	279.903616	198.025278	-356.858769	188.317033	198.070574	-312.376315	159.059456	178.466121	-426.963535	-214.802423	945.919980	-230.845249	-6.146091	84.030117	-435.161544	-11.640654	81.287169	-34.798313	
252	1.2600	502.528473	1410.396301	-69.364844	497.441541	1423.349723	-399.929149	429.732135	1506.609797	-233.460608	468.568000	1341.457723	-229.895220	539.023981	1144.781356	23.579223	749.733581	946.983251	-25.144721	553.691065	1157.883424	-469.739580	759.864855	938.960555	-416.547601	-77.604753	1208.772756	-241.649547	115.458400	1210.963948	-420.830576	95.488379	1236.851535	-52.063132	125.328200	1133.164896	-379.780712	107.427495	1171.897376	-93.885103	-47.082593	1258.232751	-198.171908	-38.624787	1253.723215	-280.618058	31.656907	1158.082460	-33.288495	38.206086	1100.257817	-435.434576	157.103650	1072.688171	-16.889315	246.073914	1071.591428	-15.944133	321.686063	1029.639454	-17.121889	255.798168	1104.442101	-31.199425	439.012296	967.181646	-37.315124	445.921646	952.084494	-164.035097	363.098767	820.729490	-20.010042	336.184846	737.977683	-38.393417	270.280076	678.693766	-41.975022	361.412245	726.153196	-65.320795	194.155359	569.950771	-66.278261	219.207414	582.856490	-155.498663	123.507175	526.742972	-108.625476	432.443650	509.430257	-110.378029	313.395857	497.210826	-40.251113	338.743165	512.107894	-155.102088	98.464110	949.227398	-450.494075	153.955285	882.726071	-454.055874	187.652235	898.286224	-449.808116	170.634135	795.865524	-439.912578	241.887337	686.421816	-419.989431	242.150359	677.587696	-297.994815	160.384108	533.573590	-445.589387	149.865271	450.777667	-427.204605	95.395207	377.872220	-421.942975	177.907042	442.822517	-401.727231	39.352692	262.232187	-401.122516	72.070774	272.458374	-309.696549	-28.792588	215.079000	-351.522719	279.831663	198.044585	-356.864685	188.283129	198.105420	-312.400667	159.004792	178.521805	-426.978128	-214.810335	945.924939	-230.852659	-6.153996	84.027821	-435.156870	-11.643696	81.285131	-34.811237	
253	1.2650	502.564532	1410.417485	-69.393337	497.467006	1423.322803	-399.966509	429.737019	1506.592423	-233.495940	468.603870	1341.433002	-229.896968	539.037160	1144.794012	23.567543	749.746237	946.987038	-25.131937	553.667032	1157.847342	-469.810534	759.846168	938.982214	-416.544028	-77.574687	1208.720464	-241.769906	115.470778	1210.921190	-420.803198	95.470082	1236.871140	-52.078994	125.318065	1133.116083	-379.741556	107.401025	1171.923084	-93.855948	-47.067174	1258.207051	-198.232383	-38.612148	1253.702374	-280.682797	31.634313	1158.072968	-33.339190	38.239732	1100.228135	-435.484024	157.099996	1072.687881	-16.919744	246.057859	1071.581079	-15.939860	321.682982	1029.650964	-17.100819	255.792096	1104.452028	-31.200285	438.996439	967.174605	-37.270832	445.937954	952.066671	-164.024969	363.108340	820.708197	-19.986509	336.230270	737.964654	-38.391257	270.325508	678.660551	-41.960663	361.454662	726.146033	-65.306142	194.208327	569.883190	-66.271753	219.277054	582.818501	-155.486213	123.565767	526.685780	-108.640431	432.503061	509.408023	-110.386055	313.464353	497.177689	-40.251883	338.808335	512.068882	-155.092517	98.503119	949.217708	-450.507470	154.017691	882.703325	-454.046210	187.716466	898.281697	-449.804802	170.708333	795.848254	-439.914681	241.991168	686.409877	-419.983510	242.193180	677.584107	-298.023925	160.441819	533.602726	-445.588789	149.878484	450.804333	-427.199293	95.389349	377.916843	-421.942127	177.913029	442.828435	-401.716414	39.298814	262.309573	-401.129153	72.042934	272.526281	-309.711471	-28.844208	215.169081	-351.529689	279.764372	198.063926	-356.868003	188.216400	198.115774	-312.383196	158.946219	178.545354	-426.956454	-214.805189	945.916514	-230.841287	-6.147744	84.025505	-435.168899	-11.643139	81.293321	-34.816559	
254	1.2700	502.591638	1410.424306	-69.426803	497.477811	1423.314993	-400.033993	429.758708	1506.567746	-233.583633	468.643507	1341.435850	-229.944991	539.051681	1144.799256	23.574703	749.742299	946.989726	-25.133503	553.640817	1157.810331	-469.902196	759.826667	938.981905	-416.533158	-77.573243	1208.708100	-241.802695	115.492765	1210.884144	-420.843855	95.480600	1236.868943	-52.121231	125.352819	1133.102077	-379.772015	107.433846	1171.899586	-93.928468	-47.054609	1258.190747	-198.277667	-38.604465	1253.666889	-280.728062	31.638391	1158.056951	-33.395426	38.288803	1100.184031	-435.518795	157.098570	1072.700481	-16.929222	246.049026	1071.581601	-15.932041	321.673995	1029.643829	-17.093766	255.770282	1104.448984	-31.183722	438.994156	967.171850	-37.253982	445.945620	952.048763	-163.975363	363.121814	820.674496	-19.980435	336.247179	737.925228	-38.375834	270.364179	678.620866	-41.960693	361.491458	726.128318	-65.290140	194.270230	569.829134	-66.291187	219.322369	582.776514	-155.500338	123.627658	526.629657	-108.654243	432.558941	509.375384	-110.381184	313.546482	497.109595	-40.258226	338.872185	512.021507	-155.094540	98.555490	949.193497	-450.505410	154.069741	882.689770	-454.039848	187.781399	898.263825	-449.816069	170.773347	795.837438	-439.902191	242.183650	686.257626	-419.709144	242.251115	677.585903	-298.012345	160.498592	533.604308	-445.579581	149.901094	450.818106	-427.178902	95.382062	377.952408	-421.945714	177.925149	442.822702	-401.675412	39.265229	262.368970	-401.104984	71.918134	272.617267	-309.680747	-28.904974	215.236224	-351.512495	279.708559	198.069393	-356.891264	188.177336	198.157543	-312.370183	158.881886	178.579780	-426.959886	-214.804983	945.913459	-230.839318	-6.140848	84.047228	-435.149217	-11.644595	81.278468	-34.792100	
